<svg width="50" height="36" viewBox="0 0 50 36" fill="none" xmlns="http://www.w3.org/2000/svg">
<path d="M42 15.7031C42.3203 14.8672 42.5 13.9531 42.5 13C42.5 8.85938 39.1406 5.5 35 5.5C33.4609 5.5 32.0234 5.96875 30.8359 6.76562C28.6719 3.01562 24.6328 0.5 20 0.5C13.0937 0.5 7.5 6.09375 7.5 13C7.5 13.2109 7.50781 13.4219 7.51562 13.6328C3.14062 15.1719 0 19.3438 0 24.25C0 30.4609 5.03906 35.5 11.25 35.5H40C45.5234 35.5 50 31.0234 50 25.5C50 20.6641 46.5625 16.625 42 15.7031Z" fill="white"/>
</svg>
