<svg width="23" height="16" viewBox="0 0 23 16" fill="none" xmlns="http://www.w3.org/2000/svg">
<path d="M-1.11448 13.178C-0.218494 13.0791 0.639984 12.7454 1.29843 12.2345C1.88603 11.7772 2.72367 11.7689 3.30711 12.2345C4.88655 13.487 7.77454 13.487 9.37898 12.1727C9.94158 11.7112 10.7542 11.7978 11.3251 12.2468C12.9088 13.487 15.7801 13.4828 17.3762 12.1768C17.9388 11.7154 18.7639 11.8101 19.339 12.2592C19.985 12.7618 20.8393 13.0873 21.7436 13.1821C22.0728 13.215 22.3104 13.5034 22.3104 13.8289V15.1556C22.3104 15.5305 21.9936 15.8477 21.6144 15.8148C20.4142 15.7118 19.2765 15.3451 18.3055 14.7477C15.9509 16.1732 12.5962 16.1526 10.3041 14.7477C7.94957 16.1732 4.59483 16.1526 2.30277 14.7477C1.33177 15.3327 0.181572 15.7077 -0.993629 15.8107C-1.37286 15.8436 -1.68958 15.5264 -1.68958 15.1515V13.8495C-1.69375 13.5199 -1.45204 13.215 -1.11448 13.178ZM-1.11448 7.24513C-0.218494 7.14625 0.639984 6.81253 1.29843 6.30164C1.88603 5.84432 2.72367 5.83608 3.30711 6.30164C4.88655 7.55413 7.77454 7.55413 9.37898 6.23984C9.94158 5.7784 10.7542 5.86492 11.3251 6.314C12.9088 7.55413 15.7801 7.55001 17.3762 6.24396C17.9388 5.78252 18.7639 5.87728 19.339 6.32636C19.985 6.82901 20.8393 7.15449 21.7436 7.24925C22.0728 7.28221 22.3104 7.57061 22.3104 7.89609V9.22274C22.3104 9.59766 21.9936 9.91491 21.6144 9.88194C20.4142 9.77894 19.2765 9.41226 18.3055 8.81486C15.9509 10.2404 12.5962 10.2198 10.3041 8.81486C7.94957 10.2404 4.59483 10.2198 2.30277 8.81486C1.33177 9.3999 0.181572 9.77482 -0.993629 9.87782C-1.37286 9.91078 -1.68958 9.59354 -1.68958 9.21862V7.91669C-1.69375 7.58709 -1.45204 7.28221 -1.11448 7.24513ZM-1.11448 1.3123C-0.218494 1.20929 0.639984 0.879693 1.29843 0.36881C1.88603 -0.088513 2.72367 -0.096753 3.30711 0.36881C4.88655 1.6213 7.77454 1.6213 9.37898 0.307009C9.94158 -0.154433 10.7542 -0.0679127 11.3251 0.38117C12.9088 1.6213 15.7801 1.61718 17.3762 0.311129C17.9388 -0.150313 18.7639 -0.0555528 19.339 0.39353C19.985 0.896173 20.8393 1.22165 21.7436 1.31642C22.0728 1.34938 22.3104 1.63778 22.3104 1.96326V3.28991C22.3104 3.66483 21.9936 3.98207 21.6144 3.94911C20.4142 3.84611 19.2765 3.47943 18.3055 2.88202C15.9509 4.30755 12.5962 4.28695 10.3041 2.88202C7.94957 4.30755 4.59483 4.28695 2.30277 2.88202C1.33177 3.46707 0.181572 3.84199 -0.993629 3.94499C-1.37286 3.97795 -1.68958 3.66071 -1.68958 3.28579V1.98386C-1.69375 1.65426 -1.45204 1.34938 -1.11448 1.3123Z" fill="white"/>
</svg>
