<svg width="24" height="24" viewBox="0 0 24 24" fill="none" xmlns="http://www.w3.org/2000/svg">
<g clip-path="url(#clip0)">
<path d="M16.6547 12H23.25C23.6625 12 24 12.3375 24 12.75V14.25C24 14.6625 23.6625 15 23.25 15H16.5844C15.8391 15 15.1406 15.5109 15.0187 16.2469C14.8641 17.1844 15.5859 18 16.5 18C17.1609 18 17.7234 17.5687 17.925 16.9734C18.0234 16.6781 18.3281 16.5 18.6375 16.5H20.175C20.6344 16.5 21.0047 16.9125 20.9203 17.3625C20.5172 19.4297 18.6891 21 16.5047 21C13.8281 21 11.6906 18.6515 12.0422 15.9094C12.3281 13.6406 14.3719 12 16.6547 12ZM23.25 10.5H7.5C4.70156 10.5 2.49375 7.93124 3.10313 5.02967C3.45938 3.3328 4.83281 1.95936 6.52969 1.60311C9.12656 1.05936 11.4563 2.7703 11.9156 5.14217C12.0047 5.59217 11.6297 5.99999 11.175 5.99999H9.6375C9.32344 5.99999 9.02344 5.82186 8.925 5.52655C8.72344 4.93124 8.16094 4.49998 7.5 4.49998C6.59063 4.49998 5.86406 5.31561 6.01875 6.25311C6.14062 6.98905 6.83437 7.49999 7.58437 7.49999H23.25C23.6625 7.49999 24 7.83749 24 8.24999V9.74999C24 10.1625 23.6625 10.5 23.25 10.5ZM5.25 12H12.5766C11.6719 12.7781 11.0203 13.8187 10.7109 15H5.25C4.00781 15 3 16.0078 3 17.25C3 18.4922 4.00781 19.5 5.25 19.5C6.08906 19.5 6.81094 19.0359 7.2 18.3562C7.33594 18.1219 7.60781 18 7.87969 18H9.46406C9.975 18 10.3547 18.5062 10.1813 18.989C9.34688 21.3609 6.87656 22.964 4.11562 22.3781C2.18437 21.9703 0.595313 20.4281 0.145313 18.5015C-0.65625 15.0703 1.94531 12 5.25 12Z" fill="white"/>
</g>
<defs>
<clipPath id="clip0">
<rect width="24" height="24" fill="white" transform="matrix(-1 0 0 1 24 0)"/>
</clipPath>
</defs>
</svg>
