<svg width="44" height="35" viewBox="0 0 44 35" fill="none" xmlns="http://www.w3.org/2000/svg">
<path d="M42.4375 25.1562H5.44071C4.84223 25.1562 4.35256 25.6484 4.35256 26.25V27.3438C4.35256 27.9453 4.84223 28.4375 5.44071 28.4375H42.4375C43.036 28.4375 43.5256 27.9453 43.5256 27.3438V26.25C43.5256 25.6484 43.036 25.1562 42.4375 25.1562ZM9.79327 31.7188H1.08814C0.489663 31.7188 0 32.2109 0 32.8125V33.9062C0 34.5078 0.489663 35 1.08814 35H9.79327C10.3917 35 10.8814 34.5078 10.8814 33.9062V32.8125C10.8814 32.2109 10.3917 31.7188 9.79327 31.7188ZM38.0849 31.7188H15.234C14.6355 31.7188 14.1458 32.2109 14.1458 32.8125V33.9062C14.1458 34.5078 14.6355 35 15.234 35H38.0849C38.6834 35 39.1731 34.5078 39.1731 33.9062V32.8125C39.1731 32.2109 38.6834 31.7188 38.0849 31.7188ZM9.79327 19.6875H20.4094C21.9396 21.0342 23.9187 21.875 26.1154 21.875C28.3121 21.875 30.2843 21.0342 31.8213 19.6875H35.9087C40.1184 19.6875 43.5256 16.2627 43.5256 12.0312C43.5256 7.7998 40.1184 4.375 35.9087 4.375C34.6845 4.375 33.5487 4.68945 32.5286 5.20215C30.876 2.11914 27.666 0 23.9391 0C21.1507 0 18.648 1.18262 16.8662 3.0625C15.0844 1.18262 12.5816 0 9.79327 0C4.38657 0 0 4.40918 0 9.84375C0 15.2783 4.38657 19.6875 9.79327 19.6875Z" fill="white"/>
</svg>
