<svg width="35" height="35" viewBox="0 0 35 35" fill="none" xmlns="http://www.w3.org/2000/svg">
<g clip-path="url(#clip0)">
<path d="M12.5713 25.2998C12.0518 24.999 11.3818 25.1768 11.0811 25.71L6.70605 33.3662C6.40527 33.8926 6.58984 34.5625 7.11621 34.8564C7.28711 34.9521 7.47168 35 7.65625 35C8.03222 35 8.40136 34.8018 8.60644 34.4463L12.9814 26.79C13.2822 26.2705 13.0977 25.6006 12.5713 25.2998V25.2998ZM19.1338 25.2998C18.6142 24.999 17.9443 25.1768 17.6435 25.71L13.2685 33.3662C12.9678 33.8926 13.1523 34.5625 13.6787 34.8564C13.8496 34.9521 14.0342 35 14.2187 35C14.5947 35 14.9639 34.8018 15.1689 34.4463L19.5439 26.79C19.8447 26.2705 19.6601 25.6006 19.1338 25.2998V25.2998ZM6.00879 25.2998C5.48926 24.999 4.81933 25.1768 4.51855 25.71L0.143555 33.3662C-0.157226 33.8926 0.0273442 34.5625 0.553711 34.8564C0.724609 34.9521 0.90918 35 1.09375 35C1.46973 35 1.83887 34.8018 2.04394 34.4463L6.41894 26.79C6.71972 26.2705 6.53515 25.6006 6.00879 25.2998V25.2998ZM32.2588 25.2998C31.7392 24.999 31.0693 25.1768 30.7685 25.71L26.3935 33.3662C26.0928 33.8926 26.2773 34.5625 26.8037 34.8564C26.9746 34.9521 27.1592 35 27.3437 35C27.7197 35 28.0889 34.8018 28.2939 34.4463L32.6689 26.79C32.9697 26.2705 32.7851 25.6006 32.2588 25.2998V25.2998ZM25.6963 25.2998C25.1767 24.999 24.5068 25.1768 24.206 25.71L19.831 33.3662C19.5303 33.8926 19.7148 34.5625 20.2412 34.8564C20.4121 34.9521 20.5967 35 20.7812 35C21.1572 35 21.5264 34.8018 21.7314 34.4463L26.1064 26.79C26.4072 26.2705 26.2226 25.6006 25.6963 25.2998V25.2998ZM28.4375 8.75C28.3965 8.75 28.3623 8.76367 28.3281 8.76367C28.4033 8.4082 28.4375 8.03906 28.4375 7.65625C28.4375 4.63477 25.9902 2.1875 22.9687 2.1875C21.2871 2.1875 19.8037 2.95996 18.7988 4.15625C17.5273 1.69531 14.9912 0 12.0312 0C7.80664 0 4.375 3.4248 4.375 7.65625C4.375 8.15527 4.42969 8.63379 4.51855 9.10547C1.90039 9.9668 3.53655e-07 12.4072 3.53655e-07 15.3125C3.53655e-07 18.9355 2.93945 21.875 6.5625 21.875H28.4375C32.0605 21.875 35 18.9355 35 15.3125C35 11.6895 32.0605 8.75 28.4375 8.75Z" fill="white"/>
</g>
<defs>
<clipPath id="clip0">
<rect width="35" height="35" fill="white"/>
</clipPath>
</defs>
</svg>
